<svg id="svg" version="1.1" xmlns="http://www.w3.org/2000/svg" xmlns:xlink="http://www.w3.org/1999/xlink" width="400" height="400" viewBox="0, 0, 400,400"><g id="svgg"><path id="path0" d="M130.370 49.776 C 126.371 51.203,124.508 53.876,124.224 58.594 L 124.023 61.914 119.679 61.934 C 112.589 61.967,112.402 62.250,112.575 72.714 C 112.707 80.709,112.801 81.054,115.385 82.984 C 116.448 83.778,116.867 83.791,145.272 83.894 L 174.082 83.999 175.384 83.113 C 178.260 81.156,178.320 80.927,178.320 72.051 L 178.320 64.080 177.344 63.109 C 176.418 62.188,176.119 62.134,171.620 62.083 L 166.874 62.028 166.738 58.817 C 166.545 54.275,164.373 51.246,160.255 49.776 C 158.143 49.023,132.482 49.023,130.370 49.776 M87.955 66.826 C 85.413 68.097,83.524 70.063,82.065 72.959 L 81.224 74.629 81.239 141.093 L 81.254 207.556 82.197 209.616 C 83.364 212.164,86.164 215.021,88.595 216.145 L 90.430 216.992 145.508 216.992 L 200.586 216.992 202.587 215.936 C 204.770 214.785,207.317 212.145,208.456 209.854 C 209.139 208.481,209.186 206.697,209.284 178.407 L 209.389 148.416 206.685 151.454 C 205.197 153.125,202.563 156.074,200.830 158.008 L 197.681 161.523 197.668 181.562 C 197.655 203.813,197.697 203.440,195.104 204.523 C 193.979 204.993,186.277 205.078,145.032 205.077 C 90.707 205.075,94.393 205.258,93.350 202.513 C 92.626 200.611,92.851 80.658,93.581 79.247 C 94.512 77.446,96.182 76.953,101.355 76.953 L 105.859 76.953 105.859 71.289 L 105.859 65.625 98.109 65.625 L 90.359 65.625 87.955 66.826 M184.936 66.134 C 184.829 66.414,184.791 68.919,184.851 71.700 L 184.961 76.758 189.935 76.953 L 194.909 77.148 196.185 78.425 L 197.461 79.702 197.656 100.965 L 197.852 122.229 199.609 120.146 C 200.576 119.000,203.169 116.040,205.371 113.569 L 209.375 109.074 209.375 92.499 C 209.375 72.731,209.420 73.017,205.725 69.330 C 202.304 65.917,201.247 65.625,192.301 65.625 C 186.771 65.625,185.087 65.741,184.936 66.134 M273.766 84.394 C 260.781 85.550,249.179 91.038,239.715 100.502 L 235.468 104.749 236.270 105.602 C 240.478 110.082,238.945 115.223,230.528 124.858 L 225.022 131.162 224.768 134.819 C 222.325 169.958,256.678 198.982,290.614 190.451 C 332.552 179.910,346.619 128.883,315.768 99.207 C 306.017 89.828,289.565 83.233,277.930 84.039 C 277.500 84.069,275.626 84.229,273.766 84.394 M289.143 96.614 C 314.705 103.277,328.310 132.267,317.040 156.059 C 301.735 188.367,255.844 188.631,240.236 156.501 C 224.497 124.100,254.350 87.545,289.143 96.614 M108.869 102.577 C 106.846 103.673,106.372 107.003,107.974 108.865 L 108.916 109.961 135.083 110.067 L 161.249 110.172 162.460 109.153 C 164.190 107.698,164.223 104.788,162.530 103.095 L 161.388 101.953 135.675 101.969 C 113.458 101.982,109.812 102.065,108.869 102.577 M223.230 106.661 C 222.399 106.906,219.897 109.371,214.839 114.930 C 210.876 119.287,206.386 124.170,204.863 125.781 C 201.798 129.022,191.650 140.118,173.068 160.547 C 166.326 167.959,160.486 174.371,160.090 174.797 C 159.380 175.559,159.241 175.439,150.485 166.505 C 142.791 158.654,141.408 157.408,140.154 157.196 C 136.100 156.510,132.514 161.560,134.506 165.148 C 135.191 166.382,154.964 186.747,156.613 187.917 C 159.743 190.137,162.270 189.252,166.573 184.426 C 168.092 182.722,180.322 169.323,193.750 154.652 C 232.616 112.186,230.143 115.028,230.356 112.585 C 230.704 108.595,227.031 105.542,223.230 106.661 M108.173 121.845 C 106.649 123.369,106.545 126.112,107.959 127.526 C 109.323 128.890,110.558 128.963,129.819 128.831 L 147.334 128.711 148.276 127.615 C 149.688 125.973,149.598 123.366,148.077 121.845 L 146.935 120.703 128.125 120.703 L 109.315 120.703 108.173 121.845 M109.124 139.832 C 106.920 140.743,106.278 144.392,107.973 146.365 L 108.916 147.461 120.571 147.582 C 133.445 147.716,134.435 147.632,135.786 146.281 C 137.093 144.974,137.088 142.270,135.776 140.744 L 134.834 139.648 122.398 139.567 C 115.557 139.523,109.584 139.642,109.124 139.832 M244.468 241.806 C 237.981 242.900,233.887 247.205,233.887 252.930 C 233.887 258.699,237.441 262.000,246.289 264.448 C 253.911 266.557,256.485 270.489,252.227 273.521 C 248.015 276.520,242.077 274.247,240.458 269.016 C 240.319 268.565,239.988 268.376,239.553 268.500 C 239.176 268.606,237.777 268.811,236.443 268.954 C 232.792 269.345,232.434 270.537,234.702 274.758 C 239.139 283.014,256.540 282.901,260.753 274.589 C 264.695 266.809,260.750 261.230,249.023 258.003 C 243.077 256.367,241.406 255.164,241.406 252.516 C 241.406 246.851,251.765 246.495,253.884 252.087 C 254.291 253.162,254.368 253.188,256.276 252.926 C 260.896 252.291,261.426 251.784,260.368 249.013 C 258.352 243.732,251.487 240.621,244.468 241.806 M65.023 242.676 C 64.920 242.944,64.881 251.514,64.937 261.719 L 65.039 280.273 68.555 280.273 L 72.070 280.273 72.266 268.098 L 72.461 255.923 79.520 268.098 L 86.579 280.273 90.067 280.273 L 93.555 280.273 93.555 261.328 L 93.555 242.383 90.820 242.304 C 89.316 242.261,87.686 242.310,87.196 242.412 L 86.306 242.598 86.415 254.698 C 86.531 267.602,86.522 267.677,85.284 265.137 C 84.381 263.286,72.803 243.444,72.177 242.676 C 71.916 242.355,70.650 242.188,68.495 242.188 C 66.227 242.188,65.152 242.339,65.023 242.676 M99.219 245.495 C 99.219 249.459,99.026 249.337,105.014 249.148 L 108.977 249.023 109.079 264.648 L 109.180 280.273 112.891 280.273 L 116.602 280.273 116.704 264.563 L 116.806 248.852 121.586 248.742 L 126.367 248.633 126.367 245.508 L 126.367 242.383 112.793 242.280 L 99.219 242.177 99.219 245.495 M132.297 242.442 C 132.151 242.589,132.031 251.204,132.031 261.589 L 132.031 280.469 144.141 280.469 L 156.250 280.469 156.250 277.148 L 156.250 273.828 147.852 273.828 L 139.453 273.828 139.453 269.336 L 139.453 264.844 146.406 264.844 C 154.450 264.844,154.297 264.909,154.297 261.477 C 154.297 257.557,154.832 257.813,146.638 257.813 L 139.453 257.813 139.453 253.320 L 139.453 248.828 147.672 248.828 L 155.891 248.828 155.778 245.605 L 155.664 242.383 144.114 242.279 C 137.761 242.223,132.444 242.296,132.297 242.442 M163.184 242.404 C 163.022 242.572,162.891 251.204,162.891 261.589 L 162.891 280.469 166.602 280.469 L 170.313 280.469 170.313 273.616 L 170.313 266.764 173.303 266.878 L 176.293 266.992 179.855 273.633 L 183.416 280.273 187.279 280.386 C 192.521 280.539,192.504 280.834,187.717 272.602 C 185.427 268.664,183.743 265.380,183.974 265.303 C 193.411 262.157,192.686 246.452,182.960 243.344 C 180.159 242.449,163.886 241.676,163.184 242.404 M198.141 242.512 C 197.754 242.757,197.670 246.828,197.750 261.549 L 197.852 280.273 201.367 280.273 L 204.883 280.273 205.078 267.994 L 205.273 255.715 212.518 267.994 L 219.763 280.273 223.260 280.273 L 226.758 280.273 226.758 261.328 L 226.758 242.383 224.032 242.265 C 222.532 242.201,220.909 242.247,220.424 242.369 L 219.542 242.590 219.439 254.738 L 219.336 266.886 212.422 255.025 C 208.620 248.501,205.288 242.944,205.020 242.676 C 204.472 242.129,198.952 241.997,198.141 242.512 M268.652 242.457 C 268.013 242.624,267.969 243.865,267.969 261.552 L 267.969 280.469 271.680 280.469 L 275.391 280.469 275.391 272.461 L 275.391 264.453 282.617 264.453 L 289.844 264.453 289.844 272.461 L 289.844 280.469 293.558 280.469 L 297.273 280.469 297.172 261.426 L 297.070 242.383 293.555 242.383 L 290.039 242.383 289.933 250.106 L 289.827 257.830 282.707 257.724 L 275.586 257.617 275.480 250.141 C 275.376 242.781,275.361 242.661,274.503 242.432 C 273.521 242.168,269.693 242.185,268.652 242.457 M305.953 242.504 C 305.566 242.756,305.483 246.832,305.563 261.549 L 305.664 280.273 309.180 280.273 L 312.695 280.273 312.695 261.328 L 312.695 242.383 309.570 242.283 C 307.852 242.228,306.224 242.327,305.953 242.504 M321.354 242.448 C 321.211 242.591,321.094 251.204,321.094 261.589 L 321.094 280.469 324.805 280.469 L 328.516 280.469 328.516 274.081 L 328.516 267.694 332.913 267.478 C 342.575 267.002,347.543 263.166,347.967 255.855 C 348.407 248.254,343.955 243.582,335.332 242.594 C 331.422 242.147,321.757 242.045,321.354 242.448 M50.094 261.426 L 50.195 280.273 53.711 280.273 L 57.227 280.273 57.328 261.426 L 57.429 242.578 53.711 242.578 L 49.992 242.578 50.094 261.426 M180.364 249.742 C 181.974 250.585,182.813 252.213,182.813 254.492 C 182.813 258.679,180.627 260.134,174.316 260.148 L 170.313 260.156 170.313 254.443 L 170.313 248.730 174.707 248.905 C 177.801 249.028,179.475 249.276,180.364 249.742 M337.101 249.707 C 339.605 250.986,340.365 252.226,340.365 255.032 C 340.365 259.376,338.216 260.914,332.129 260.929 L 328.516 260.938 328.516 254.883 L 328.516 248.828 331.948 248.828 C 334.738 248.828,335.703 248.993,337.101 249.707 M197.070 295.976 C 188.609 297.101,184.103 302.993,183.686 313.477 C 183.356 321.770,184.648 326.688,188.151 330.472 C 196.474 339.461,214.844 334.342,214.844 323.032 L 214.844 321.875 211.121 321.875 C 207.912 321.875,207.370 321.969,207.196 322.559 C 204.928 330.268,195.123 330.782,192.361 323.337 C 190.763 319.028,191.409 308.512,193.461 305.430 C 196.557 300.782,205.186 302.009,206.597 307.299 L 206.891 308.398 210.919 308.510 L 214.948 308.622 214.688 306.995 C 213.508 299.618,205.824 294.812,197.070 295.976 M83.369 297.006 C 83.257 297.299,83.217 298.751,83.282 300.234 L 83.398 302.930 88.184 303.039 L 92.969 303.149 92.969 318.776 L 92.969 334.403 96.777 334.291 L 100.586 334.180 100.688 318.664 L 100.790 303.149 105.571 303.039 L 110.352 302.930 110.352 299.805 L 110.352 296.680 96.962 296.577 C 85.952 296.492,83.537 296.569,83.369 297.006 M115.885 296.745 C 115.507 297.123,115.577 333.695,115.957 334.294 C 116.188 334.658,117.199 334.767,119.565 334.685 L 122.852 334.570 122.958 327.832 L 123.065 321.094 125.946 321.094 L 128.827 321.094 132.480 327.832 L 136.133 334.570 139.948 334.682 C 142.989 334.771,143.808 334.680,143.980 334.230 C 144.151 333.783,139.512 325.244,136.469 320.405 C 135.950 319.580,135.985 319.494,136.998 319.109 C 145.031 316.055,145.304 302.518,137.415 298.409 C 134.294 296.784,117.170 295.460,115.885 296.745 M160.358 297.168 C 159.554 299.186,148.047 333.563,148.047 333.947 C 148.047 334.271,149.141 334.371,151.819 334.291 L 155.591 334.180 156.714 330.566 L 157.836 326.953 164.782 326.953 L 171.728 326.953 172.860 330.497 C 174.190 334.657,173.831 334.316,176.979 334.397 C 180.948 334.498,181.641 334.417,181.641 333.848 C 181.641 333.375,176.157 317.536,170.700 302.246 L 168.644 296.484 164.637 296.484 C 161.185 296.484,160.593 296.579,160.358 297.168 M221.094 315.430 L 221.094 334.404 224.707 334.292 L 228.320 334.180 228.430 328.928 C 228.549 323.195,228.393 323.647,231.535 319.957 L 232.669 318.624 237.675 326.500 L 242.680 334.375 246.731 334.375 C 252.009 334.375,252.511 335.958,242.112 319.813 C 239.790 316.208,237.891 313.096,237.891 312.898 C 237.891 312.700,240.527 309.023,243.750 304.726 C 246.973 300.429,249.609 296.817,249.609 296.699 C 249.609 296.581,247.784 296.484,245.553 296.484 L 241.496 296.484 235.104 305.175 L 228.711 313.865 228.516 305.272 L 228.320 296.680 224.707 296.567 L 221.094 296.455 221.094 315.430 M255.563 315.527 L 255.664 334.570 267.578 334.570 L 279.492 334.570 279.492 331.250 L 279.492 327.930 271.387 327.930 L 263.281 327.930 263.281 323.349 L 263.281 318.768 270.410 318.661 L 277.539 318.555 277.539 315.430 L 277.539 312.305 270.410 312.198 L 263.281 312.092 263.281 307.608 L 263.281 303.125 271.289 303.125 L 279.297 303.125 279.297 299.805 L 279.297 296.484 267.379 296.484 L 255.461 296.484 255.563 315.527 M286.031 315.527 L 286.133 334.570 289.844 334.570 L 293.555 334.570 293.555 327.817 L 293.555 321.064 296.476 321.176 L 299.397 321.289 302.958 327.930 L 306.519 334.570 309.606 334.686 C 315.551 334.909,315.510 335.341,310.381 326.521 L 306.308 319.517 307.796 318.758 C 311.401 316.919,312.994 314.170,313.214 309.409 C 313.673 299.513,308.964 296.494,293.063 296.487 L 285.930 296.484 286.031 315.527 M133.050 304.002 C 136.197 305.683,135.976 311.546,132.694 313.485 C 131.769 314.031,130.599 314.193,127.375 314.221 L 123.242 314.258 123.134 308.649 L 123.025 303.040 127.430 303.196 C 130.543 303.307,132.192 303.543,133.050 304.002 M302.741 303.759 C 304.711 304.548,305.469 305.924,305.469 308.717 C 305.469 312.712,303.343 314.191,297.540 314.231 L 293.713 314.258 293.634 308.691 L 293.555 303.125 297.355 303.125 C 299.951 303.125,301.659 303.326,302.741 303.759 M169.366 320.020 C 169.565 320.645,169.182 320.703,164.870 320.703 C 161.539 320.703,160.156 320.569,160.156 320.247 C 160.156 319.867,161.272 316.175,164.149 307.031 C 164.578 305.669,165.617 308.257,169.366 320.020 " stroke="none" fill="#26506d" fill-rule="evenodd"></path><path id="path1" d="M0.000 200.000 L 0.000 400.000 200.000 400.000 L 400.000 400.000 400.000 200.000 L 400.000 0.000 200.000 0.000 L 0.000 0.000 0.000 200.000 M161.198 49.975 C 164.910 51.660,166.924 54.907,166.968 59.275 L 166.992 61.714 171.289 61.718 C 178.592 61.724,178.617 61.763,178.442 72.680 C 178.240 85.293,181.430 84.180,145.508 84.180 C 109.478 84.180,112.500 85.256,112.500 72.422 C 112.500 61.937,112.647 61.719,119.707 61.719 L 123.828 61.719 123.830 59.473 C 123.835 55.088,125.919 51.582,129.492 49.950 C 131.917 48.842,158.750 48.864,161.198 49.975 M105.772 71.144 L 105.880 76.858 101.084 77.025 C 95.980 77.203,94.951 77.512,93.848 79.196 C 93.204 80.178,93.164 83.806,93.164 141.323 L 93.164 202.408 94.440 203.548 L 95.715 204.688 145.349 204.687 L 194.982 204.687 196.124 203.546 L 197.266 202.404 197.266 182.635 C 197.266 166.450,197.366 162.638,197.818 161.609 C 198.334 160.434,208.644 148.792,209.427 148.499 C 209.642 148.419,209.742 160.266,209.677 178.187 L 209.570 208.008 208.644 209.766 C 207.160 212.584,205.320 214.586,203.072 215.832 L 200.977 216.992 146.113 217.095 C 96.719 217.188,91.062 217.136,89.370 216.574 C 86.984 215.781,83.729 212.835,82.210 210.093 L 81.055 208.008 81.055 141.211 L 81.055 74.414 81.966 72.656 C 85.036 66.739,88.447 65.244,98.633 65.354 L 105.664 65.430 105.772 71.144 M201.953 66.282 C 204.587 67.493,207.234 70.046,208.474 72.572 L 209.570 74.805 209.687 91.866 L 209.804 108.927 204.588 114.737 C 201.719 117.933,199.088 120.953,198.741 121.449 C 197.345 123.442,197.266 122.351,197.266 101.129 C 197.266 75.488,197.874 77.342,189.355 77.036 L 184.766 76.871 184.766 71.313 C 184.766 68.256,184.897 65.623,185.059 65.461 C 185.773 64.744,200.125 65.442,201.953 66.282 M286.204 84.590 C 338.670 92.380,349.685 162.743,302.148 186.434 C 267.413 203.746,226.374 179.137,224.731 140.011 C 224.371 131.440,224.224 131.854,229.928 125.324 C 238.919 115.030,240.349 110.868,236.478 106.267 L 235.486 105.089 236.255 104.009 C 245.934 90.427,267.928 81.876,286.204 84.590 M273.242 95.753 C 241.580 99.708,225.627 135.973,243.893 162.467 L 245.891 165.365 246.405 163.544 C 252.471 142.067,306.080 142.161,310.372 163.656 L 310.802 165.811 312.569 163.410 C 334.582 133.508,309.970 91.165,273.242 95.753 M162.383 102.540 C 164.336 103.908,164.479 107.902,162.628 109.358 C 161.629 110.144,161.208 110.156,135.352 110.156 L 109.091 110.156 108.061 109.126 C 106.529 107.595,106.583 104.685,108.173 103.095 L 109.315 101.953 135.430 101.953 C 158.035 101.953,161.658 102.032,162.383 102.540 M285.480 107.129 C 301.672 113.760,299.550 137.829,282.371 142.401 C 271.501 145.294,260.156 135.909,260.156 124.023 C 260.156 110.892,273.283 102.135,285.480 107.129 M227.317 106.822 C 229.399 107.899,230.469 109.605,230.467 111.846 C 230.465 114.883,231.697 113.360,210.352 136.720 C 204.980 142.597,194.785 153.760,187.695 161.525 C 160.537 191.270,162.779 189.063,159.721 189.063 C 157.230 189.063,156.608 188.537,145.238 176.826 C 133.719 164.962,133.160 164.201,133.947 161.459 C 135.004 157.775,137.811 156.227,141.259 157.429 C 141.938 157.666,145.833 161.373,150.877 166.584 L 159.353 175.340 170.985 162.592 C 192.976 138.490,207.113 123.053,219.775 109.310 C 222.704 106.132,224.705 105.471,227.317 106.822 M146.586 120.725 C 148.369 121.220,149.260 122.471,149.288 124.518 C 149.351 129.049,150.044 128.906,127.979 128.906 L 109.435 128.906 108.233 127.895 C 105.960 125.982,106.741 121.540,109.490 120.745 C 111.270 120.230,144.740 120.212,146.586 120.725 M135.685 140.411 C 137.288 141.896,137.198 145.231,135.517 146.645 L 134.315 147.656 121.875 147.656 L 109.435 147.656 108.233 146.645 C 107.168 145.749,107.031 145.397,107.031 143.555 C 107.031 141.713,107.168 141.360,108.233 140.464 L 109.435 139.453 122.043 139.453 L 134.652 139.453 135.685 140.411 M254.000 242.677 C 260.123 245.480,263.080 251.606,258.789 252.598 C 255.000 253.474,254.202 253.308,253.320 251.457 C 251.287 247.190,243.449 247.088,241.843 251.308 C 240.641 254.467,242.447 256.060,249.414 257.984 C 260.626 261.082,264.856 267.062,261.036 274.414 C 256.307 283.517,238.014 283.109,234.015 273.812 C 232.319 269.871,232.880 269.127,237.960 268.583 L 240.519 268.308 240.959 270.054 C 242.435 275.918,253.841 276.137,253.894 270.302 C 253.918 267.647,252.076 266.289,246.121 264.572 C 235.790 261.593,232.049 256.906,234.206 249.643 C 236.206 242.910,246.553 239.268,254.000 242.677 M57.328 261.426 L 57.429 280.469 53.715 280.469 L 50.000 280.469 50.000 261.589 C 50.000 251.204,50.124 242.585,50.274 242.434 C 50.425 242.283,52.051 242.210,53.888 242.271 L 57.227 242.383 57.328 261.426 M75.419 247.754 C 77.217 250.815,80.404 256.302,82.502 259.946 L 86.317 266.572 86.420 254.477 L 86.523 242.383 90.039 242.383 L 93.555 242.383 93.656 261.426 L 93.757 280.469 90.299 280.469 C 87.485 280.469,86.732 280.341,86.262 279.785 C 85.709 279.130,76.237 262.881,73.567 258.008 L 72.283 255.664 72.274 268.066 L 72.266 280.469 68.555 280.469 L 64.844 280.469 64.844 261.328 L 64.844 242.188 68.497 242.188 L 72.150 242.188 75.419 247.754 M126.729 244.906 C 127.148 249.159,127.075 249.219,121.471 249.219 L 116.797 249.219 116.797 264.858 L 116.797 280.497 112.988 280.385 L 109.180 280.273 109.078 264.746 L 108.975 249.219 104.371 249.219 C 98.853 249.219,98.828 249.202,98.828 245.495 C 98.828 241.870,97.478 242.188,112.905 242.188 L 126.462 242.188 126.729 244.906 M156.013 242.805 C 156.436 243.909,156.267 248.265,155.781 248.750 C 155.448 249.083,153.073 249.219,147.578 249.219 L 139.844 249.219 139.844 253.507 L 139.844 257.795 146.973 257.901 L 154.102 258.008 154.102 261.328 L 154.102 264.648 146.973 264.755 L 139.844 264.861 139.844 269.337 L 139.844 273.813 148.145 273.918 L 156.445 274.023 156.561 276.892 C 156.632 278.670,156.503 279.969,156.220 280.310 C 155.603 281.054,132.849 281.130,132.109 280.391 C 131.613 279.894,131.392 244.071,131.878 242.805 C 132.238 241.867,155.653 241.867,156.013 242.805 M180.485 242.581 C 183.193 243.095,186.238 244.520,187.656 245.938 C 192.767 251.049,190.974 263.069,184.809 265.025 C 183.683 265.383,183.534 265.015,187.895 272.655 C 192.825 281.292,192.872 280.844,187.040 280.854 C 183.347 280.861,183.799 281.315,179.534 273.310 L 176.064 266.797 173.384 266.797 L 170.703 266.797 170.703 273.390 C 170.703 281.249,170.887 280.937,166.346 280.778 L 163.086 280.664 162.984 261.914 C 162.928 251.602,162.967 242.944,163.070 242.676 C 163.305 242.062,177.345 241.986,180.485 242.581 M207.275 245.996 C 208.509 248.091,211.769 253.656,214.519 258.363 L 219.520 266.922 219.623 254.652 L 219.727 242.383 223.242 242.383 L 226.758 242.383 226.859 261.381 L 226.961 280.379 225.166 280.648 C 223.254 280.935,220.404 280.612,219.677 280.026 C 219.434 279.831,216.094 274.340,212.255 267.823 L 205.273 255.976 205.078 268.097 L 204.883 280.218 203.711 280.553 C 203.066 280.737,201.440 280.780,200.098 280.647 L 197.656 280.407 197.656 261.557 C 197.656 251.190,197.773 242.591,197.917 242.448 C 198.060 242.305,199.720 242.188,201.605 242.188 L 205.033 242.188 207.275 245.996 M275.313 242.656 C 275.643 242.987,275.781 245.234,275.781 250.273 L 275.781 257.422 282.804 257.422 L 289.827 257.422 289.933 249.902 L 290.039 242.383 293.750 242.383 L 297.461 242.383 297.562 261.088 C 297.680 282.779,298.071 280.932,293.397 280.776 L 290.039 280.664 289.933 272.559 L 289.828 264.453 282.805 264.453 L 275.781 264.453 275.781 272.218 C 275.781 281.404,276.018 280.939,271.425 280.778 L 268.164 280.664 268.062 261.914 C 268.006 251.602,268.045 242.944,268.148 242.676 C 268.400 242.017,274.657 242.000,275.313 242.656 M312.695 261.523 L 312.695 280.664 309.180 280.664 L 305.664 280.664 305.562 261.914 C 305.506 251.602,305.547 242.937,305.654 242.660 C 305.796 242.290,306.752 242.187,309.271 242.270 L 312.695 242.383 312.695 261.523 M336.914 242.575 C 343.955 243.727,348.127 248.297,348.179 254.914 C 348.242 262.930,342.380 267.578,332.207 267.578 L 328.906 267.578 328.906 273.750 C 328.906 281.146,329.083 280.859,324.531 280.859 L 321.094 280.859 321.086 274.805 C 321.082 271.475,321.079 264.619,321.079 259.570 C 321.079 254.521,321.082 248.545,321.086 246.289 L 321.094 242.188 327.832 242.190 C 331.538 242.191,335.625 242.365,336.914 242.575 M328.906 255.027 L 328.906 261.031 332.520 260.864 C 338.332 260.596,340.236 259.153,340.233 255.018 C 340.230 250.830,338.288 249.352,332.519 249.150 L 328.906 249.023 328.906 255.027 M170.703 254.706 L 170.703 260.259 174.753 260.079 C 180.898 259.805,183.114 258.023,182.649 253.727 C 182.266 250.185,181.050 249.441,175.384 249.284 L 170.703 249.153 170.703 254.706 M204.422 296.287 C 209.996 297.739,213.900 301.676,214.695 306.648 C 215.019 308.676,214.637 308.970,211.670 308.978 C 207.835 308.989,207.042 308.681,206.259 306.877 C 203.381 300.248,193.867 301.538,192.159 308.789 C 191.431 311.880,191.526 320.089,192.320 322.751 C 194.579 330.323,204.965 330.506,206.834 323.006 C 207.106 321.915,214.065 320.940,214.989 321.864 C 215.531 322.406,214.193 326.986,212.892 329.036 C 208.465 336.017,195.274 337.363,188.781 331.497 C 182.083 325.446,181.554 307.472,187.863 300.286 C 191.152 296.541,198.543 294.756,204.422 296.287 M108.496 296.458 L 110.547 296.484 110.547 299.763 C 110.547 303.694,110.808 303.516,105.051 303.516 L 100.790 303.516 100.688 319.043 L 100.586 334.570 96.875 334.570 L 93.164 334.570 93.062 319.055 L 92.960 303.540 88.179 303.430 L 83.398 303.320 83.284 300.033 C 83.131 295.647,80.026 296.087,108.496 296.458 M128.125 296.610 C 134.462 296.761,136.835 297.390,139.564 299.641 C 145.292 304.366,144.295 315.483,137.849 318.771 C 135.968 319.731,135.644 318.702,140.384 326.820 C 145.215 335.092,145.228 334.766,140.057 334.766 L 136.057 334.766 132.384 327.940 L 128.711 321.114 126.083 321.104 L 123.456 321.094 123.349 327.832 L 123.242 334.570 119.531 334.570 L 115.820 334.570 115.719 315.650 C 115.658 304.261,115.762 296.641,115.981 296.505 C 116.182 296.382,117.721 296.324,119.403 296.378 C 121.085 296.431,125.010 296.536,128.125 296.610 M168.638 296.572 C 169.026 297.067,171.338 303.487,178.375 323.603 C 182.583 335.633,182.642 334.814,177.571 334.670 L 174.087 334.570 172.851 330.859 L 171.615 327.148 164.786 327.042 L 157.957 326.936 156.873 330.556 C 156.277 332.548,155.585 334.307,155.336 334.465 C 154.731 334.850,148.762 334.836,148.152 334.448 C 147.695 334.158,159.616 297.801,160.530 296.700 C 161.052 296.071,168.157 295.959,168.638 296.572 M249.121 296.402 C 249.932 296.678,249.700 297.193,247.538 299.923 C 246.398 301.362,243.745 304.870,241.642 307.719 L 237.818 312.899 243.274 321.391 C 252.763 336.159,252.441 334.829,246.484 334.670 L 242.773 334.570 240.039 330.379 C 238.535 328.074,236.250 324.525,234.961 322.492 L 232.617 318.795 230.566 321.308 L 228.516 323.820 228.516 329.090 C 228.516 335.204,228.766 334.893,224.015 334.688 L 221.289 334.570 221.188 315.527 L 221.086 296.484 224.793 296.484 L 228.501 296.484 228.606 305.070 L 228.711 313.655 233.789 306.761 C 236.582 302.969,239.395 299.111,240.039 298.187 C 240.684 297.263,241.475 296.429,241.797 296.333 C 242.521 296.119,248.451 296.174,249.121 296.402 M279.237 296.643 C 279.850 297.021,279.834 302.432,279.219 303.047 C 278.886 303.380,276.510 303.516,271.016 303.516 L 263.281 303.516 263.281 307.766 L 263.281 312.016 269.629 311.858 C 278.345 311.640,277.789 311.386,277.652 315.539 L 277.539 318.945 270.410 319.052 L 263.281 319.158 263.281 323.446 L 263.281 327.734 271.275 327.734 C 280.362 327.734,279.886 327.549,280.045 331.145 C 280.219 335.087,281.328 334.766,267.552 334.766 L 255.469 334.766 255.469 315.658 C 255.469 303.268,255.606 296.504,255.859 296.419 C 256.637 296.160,278.799 296.372,279.237 296.643 M306.281 297.577 C 315.709 301.326,316.280 314.081,307.254 319.336 C 306.660 319.682,307.031 320.497,310.535 326.525 C 315.352 334.811,315.355 334.538,310.458 334.682 L 306.668 334.794 305.745 333.315 C 305.238 332.501,303.550 329.419,301.995 326.465 L 299.167 321.094 296.468 321.094 L 293.768 321.094 293.662 327.832 L 293.555 334.570 289.844 334.570 L 286.133 334.570 286.031 315.496 L 285.930 296.421 295.016 296.566 C 303.286 296.698,304.297 296.789,306.281 297.577 M123.438 308.594 L 123.438 314.063 127.161 314.063 C 133.310 314.063,135.339 312.527,135.054 308.088 C 134.811 304.304,132.688 303.125,126.119 303.125 L 123.438 303.125 123.438 308.594 M293.750 308.594 L 293.750 314.063 297.565 314.063 C 303.242 314.063,305.467 312.457,305.468 308.359 C 305.470 304.656,303.118 303.216,296.973 303.156 L 293.750 303.125 293.750 308.594 M162.917 311.529 C 161.983 314.486,160.988 317.672,160.706 318.609 L 160.194 320.313 164.787 320.313 L 169.380 320.313 167.171 313.770 C 165.956 310.171,164.884 306.985,164.789 306.689 C 164.694 306.394,163.852 308.572,162.917 311.529 " stroke="none" fill="#edecec" fill-rule="evenodd"></path><path id="path2" d="M275.000 106.007 C 256.701 109.422,255.082 135.939,272.805 141.956 C 293.717 149.056,306.342 116.914,286.328 107.529 C 284.057 106.464,282.957 106.196,278.711 105.676 C 278.066 105.597,276.396 105.746,275.000 106.007 M269.336 148.092 C 256.784 150.332,247.685 156.679,246.279 164.176 C 245.915 166.114,254.234 174.219,256.587 174.219 C 256.795 174.219,257.025 174.359,257.096 174.531 C 257.433 175.338,264.847 178.323,268.750 179.223 C 283.106 182.531,298.022 178.466,308.153 168.483 C 311.046 165.633,311.203 164.453,309.229 160.417 C 304.610 150.975,285.780 145.158,269.336 148.092 " stroke="none" fill="#f29735" fill-rule="evenodd"></path><path id="path3" d="M123.949 59.180 C 123.951 60.469,124.024 60.949,124.111 60.247 C 124.198 59.545,124.196 58.490,124.107 57.903 C 124.018 57.316,123.947 57.891,123.949 59.180 M119.434 62.001 C 120.132 62.088,121.274 62.088,121.973 62.001 C 122.671 61.915,122.100 61.844,120.703 61.844 C 119.307 61.844,118.735 61.915,119.434 62.001 M169.837 62.007 C 170.972 62.086,172.730 62.086,173.744 62.005 C 174.757 61.925,173.828 61.860,171.680 61.861 C 169.531 61.862,168.702 61.928,169.837 62.007 M204.688 68.091 C 204.688 68.158,205.259 68.729,205.957 69.361 L 207.227 70.508 206.079 69.238 C 205.010 68.055,204.688 67.789,204.688 68.091 M209.554 92.969 C 209.554 101.885,209.605 105.532,209.668 101.074 C 209.730 96.616,209.730 89.321,209.668 84.863 C 209.605 80.405,209.554 84.053,209.554 92.969 M81.043 102.148 C 81.043 114.824,81.092 119.953,81.152 113.546 C 81.212 107.139,81.212 96.768,81.152 90.499 C 81.092 84.231,81.042 89.473,81.043 102.148 M275.098 84.254 C 275.474 84.352,276.089 84.352,276.465 84.254 C 276.841 84.155,276.533 84.075,275.781 84.075 C 275.029 84.075,274.722 84.155,275.098 84.254 M316.406 99.805 C 317.135 100.557,317.819 101.172,317.927 101.172 C 318.034 101.172,317.526 100.557,316.797 99.805 C 316.068 99.053,315.384 98.438,315.276 98.438 C 315.169 98.438,315.677 99.053,316.406 99.805 M80.950 126.563 C 80.950 127.314,81.030 127.622,81.129 127.246 C 81.227 126.870,81.227 126.255,81.129 125.879 C 81.030 125.503,80.950 125.811,80.950 126.563 M81.017 134.180 C 81.018 137.617,81.078 138.971,81.150 137.188 C 81.223 135.406,81.222 132.593,81.149 130.938 C 81.076 129.284,81.017 130.742,81.017 134.180 M81.046 173.438 C 81.046 191.592,81.094 199.019,81.152 189.941 C 81.211 180.864,81.211 166.011,81.152 156.934 C 81.094 147.856,81.046 155.283,81.046 173.438 M209.560 177.539 C 209.560 193.438,209.609 199.884,209.668 191.866 C 209.727 183.847,209.727 170.839,209.668 162.959 C 209.609 155.080,209.560 161.641,209.560 177.539 M143.750 159.570 C 144.479 160.322,145.163 160.938,145.270 160.938 C 145.378 160.938,144.869 160.322,144.141 159.570 C 143.412 158.818,142.728 158.203,142.620 158.203 C 142.513 158.203,143.021 158.818,143.750 159.570 M138.867 170.313 C 140.360 171.816,141.669 173.047,141.776 173.047 C 141.883 173.047,140.750 171.816,139.258 170.313 C 137.765 168.809,136.456 167.578,136.349 167.578 C 136.242 167.578,137.375 168.809,138.867 170.313 M154.883 171.094 C 155.941 172.168,156.894 173.047,157.002 173.047 C 157.109 173.047,156.332 172.168,155.273 171.094 C 154.215 170.020,153.262 169.141,153.154 169.141 C 153.047 169.141,153.825 170.020,154.883 171.094 M152.148 183.984 C 153.641 185.488,154.950 186.719,155.057 186.719 C 155.165 186.719,154.031 185.488,152.539 183.984 C 151.047 182.480,149.738 181.250,149.630 181.250 C 149.523 181.250,150.656 182.480,152.148 183.984 M277.246 192.079 C 277.944 192.166,279.087 192.166,279.785 192.079 C 280.483 191.993,279.912 191.922,278.516 191.922 C 277.119 191.922,276.548 191.993,277.246 192.079 M52.063 242.475 C 53.090 242.556,54.672 242.555,55.578 242.473 C 56.485 242.391,55.645 242.325,53.711 242.326 C 51.777 242.327,51.036 242.394,52.063 242.475 M155.988 245.508 C 155.989 247.012,156.060 247.579,156.144 246.769 C 156.229 245.958,156.228 244.728,156.141 244.034 C 156.055 243.341,155.986 244.004,155.988 245.508 M275.553 250.000 C 275.553 253.975,275.611 255.601,275.682 253.613 C 275.753 251.626,275.753 248.374,275.682 246.387 C 275.611 244.399,275.553 246.025,275.553 250.000 M297.446 261.523 C 297.446 271.836,297.497 275.999,297.558 270.774 C 297.620 265.549,297.620 257.111,297.558 252.024 C 297.497 246.936,297.446 251.211,297.446 261.523 M119.058 249.118 C 120.409 249.194,122.519 249.194,123.746 249.116 C 124.973 249.039,123.867 248.976,121.289 248.977 C 118.711 248.978,117.707 249.041,119.058 249.118 M139.602 253.320 C 139.603 255.898,139.666 256.902,139.743 255.551 C 139.819 254.200,139.819 252.091,139.741 250.864 C 139.664 249.637,139.601 250.742,139.602 253.320 M143.848 249.119 C 145.942 249.190,149.370 249.190,151.465 249.119 C 153.560 249.049,151.846 248.992,147.656 248.992 C 143.467 248.992,141.753 249.049,143.848 249.119 M172.181 249.117 C 173.316 249.196,175.074 249.195,176.087 249.115 C 177.101 249.035,176.172 248.970,174.023 248.971 C 171.875 248.972,171.046 249.037,172.181 249.117 M170.464 254.492 C 170.465 257.285,170.527 258.376,170.603 256.917 C 170.678 255.458,170.677 253.173,170.601 251.839 C 170.525 250.505,170.464 251.699,170.464 254.492 M328.671 255.078 C 328.671 258.193,328.732 259.468,328.806 257.910 C 328.880 256.353,328.880 253.804,328.806 252.246 C 328.732 250.688,328.671 251.963,328.671 255.078 M279.199 257.713 C 281.187 257.784,284.438 257.784,286.426 257.713 C 288.413 257.642,286.787 257.584,282.813 257.584 C 278.838 257.584,277.212 257.642,279.199 257.713 M275.555 272.266 C 275.555 276.670,275.612 278.472,275.682 276.270 C 275.752 274.067,275.752 270.464,275.682 268.262 C 275.612 266.060,275.555 267.861,275.555 272.266 M139.602 269.336 C 139.603 271.914,139.666 272.918,139.743 271.567 C 139.819 270.216,139.819 268.106,139.741 266.879 C 139.664 265.652,139.601 266.758,139.602 269.336 M328.674 274.023 C 328.674 277.461,328.734 278.815,328.807 277.032 C 328.879 275.250,328.879 272.437,328.806 270.782 C 328.733 269.127,328.673 270.586,328.674 274.023 M170.468 273.828 C 170.468 276.943,170.528 278.218,170.603 276.660 C 170.677 275.103,170.677 272.554,170.603 270.996 C 170.528 269.438,170.468 270.713,170.468 273.828 M156.381 277.344 C 156.381 278.955,156.450 279.614,156.535 278.809 C 156.619 278.003,156.619 276.685,156.535 275.879 C 156.450 275.073,156.381 275.732,156.381 277.344 M138.184 280.761 C 141.460 280.826,146.821 280.826,150.098 280.761 C 153.374 280.696,150.693 280.642,144.141 280.642 C 137.588 280.642,134.907 280.696,138.184 280.761 M164.953 280.756 C 165.980 280.837,167.562 280.836,168.469 280.754 C 169.375 280.672,168.535 280.606,166.602 280.607 C 164.668 280.609,163.926 280.676,164.953 280.756 M270.031 280.756 C 271.058 280.837,272.640 280.836,273.547 280.754 C 274.454 280.672,273.613 280.606,271.680 280.607 C 269.746 280.609,269.004 280.676,270.031 280.756 M291.906 280.756 C 292.933 280.837,294.515 280.836,295.422 280.754 C 296.329 280.672,295.488 280.606,293.555 280.607 C 291.621 280.609,290.879 280.676,291.906 280.756 M307.725 280.755 C 308.644 280.838,310.050 280.837,310.850 280.753 C 311.650 280.669,310.898 280.601,309.180 280.603 C 307.461 280.604,306.806 280.673,307.725 280.755 M323.156 280.756 C 324.183 280.837,325.765 280.836,326.672 280.754 C 327.579 280.672,326.738 280.606,324.805 280.607 C 322.871 280.609,322.129 280.676,323.156 280.756 M279.431 299.805 C 279.432 301.523,279.501 302.178,279.583 301.259 C 279.666 300.340,279.665 298.934,279.581 298.134 C 279.497 297.334,279.429 298.086,279.431 299.805 M86.246 303.415 C 87.597 303.491,89.706 303.490,90.933 303.413 C 92.160 303.336,91.055 303.273,88.477 303.274 C 85.898 303.275,84.895 303.338,86.246 303.415 M103.223 303.414 C 104.458 303.491,106.479 303.491,107.715 303.414 C 108.950 303.336,107.939 303.273,105.469 303.273 C 102.998 303.273,101.987 303.336,103.223 303.414 M123.202 308.594 C 123.202 311.709,123.263 312.983,123.337 311.426 C 123.411 309.868,123.411 307.319,123.337 305.762 C 123.263 304.204,123.202 305.479,123.202 308.594 M267.090 303.416 C 269.292 303.486,272.896 303.486,275.098 303.416 C 277.300 303.347,275.498 303.290,271.094 303.290 C 266.689 303.290,264.888 303.347,267.090 303.416 M313.380 308.789 C 313.384 309.648,313.464 309.954,313.558 309.468 C 313.651 308.982,313.647 308.279,313.550 307.906 C 313.452 307.532,313.375 307.930,313.380 308.789 M125.303 314.349 C 126.222 314.432,127.628 314.430,128.428 314.346 C 129.228 314.263,128.477 314.195,126.758 314.196 C 125.039 314.198,124.385 314.267,125.303 314.349 M295.616 314.349 C 296.535 314.432,297.941 314.430,298.741 314.346 C 299.541 314.263,298.789 314.195,297.070 314.196 C 295.352 314.198,294.697 314.267,295.616 314.349 M270.313 318.750 L 263.086 318.972 270.192 319.056 C 274.601 319.109,277.389 318.992,277.539 318.750 C 277.672 318.535,277.726 318.397,277.660 318.444 C 277.593 318.490,274.287 318.628,270.313 318.750 M162.402 320.602 C 163.745 320.678,165.942 320.678,167.285 320.602 C 168.628 320.525,167.529 320.463,164.844 320.463 C 162.158 320.463,161.060 320.525,162.402 320.602 M123.046 327.813 C 122.939 331.617,122.988 334.592,123.154 334.425 C 123.321 334.258,123.408 331.146,123.349 327.510 L 123.240 320.898 123.046 327.813 M187.109 329.810 C 187.109 329.877,187.681 330.448,188.379 331.079 L 189.648 332.227 188.501 330.957 C 187.432 329.774,187.109 329.508,187.109 329.810 M95.031 334.663 C 96.058 334.743,97.640 334.742,98.547 334.660 C 99.454 334.579,98.613 334.512,96.680 334.514 C 94.746 334.515,94.004 334.582,95.031 334.663 M150.109 334.663 C 151.136 334.743,152.718 334.742,153.625 334.660 C 154.532 334.579,153.691 334.512,151.758 334.514 C 149.824 334.515,149.082 334.582,150.109 334.663 M175.293 334.651 C 175.776 334.744,176.567 334.744,177.051 334.651 C 177.534 334.558,177.139 334.481,176.172 334.481 C 175.205 334.481,174.810 334.558,175.293 334.651 M245.031 334.663 C 246.058 334.743,247.640 334.742,248.547 334.660 C 249.454 334.579,248.613 334.512,246.680 334.514 C 244.746 334.515,244.004 334.582,245.031 334.663 " stroke="none" fill="#8ba0ad" fill-rule="evenodd"></path><path id="path4" d="M166.909 59.570 C 166.912 60.645,166.987 61.038,167.077 60.444 C 167.167 59.850,167.165 58.971,167.072 58.491 C 166.979 58.010,166.906 58.496,166.909 59.570 M94.824 65.525 C 96.812 65.596,100.063 65.596,102.051 65.525 C 104.038 65.455,102.412 65.397,98.438 65.397 C 94.463 65.397,92.837 65.455,94.824 65.525 M188.359 65.525 C 190.228 65.596,193.392 65.597,195.390 65.526 C 197.389 65.455,195.859 65.396,191.992 65.396 C 188.125 65.395,186.490 65.453,188.359 65.525 M197.447 101.758 C 197.447 112.930,197.497 117.444,197.558 111.789 C 197.619 106.134,197.619 96.994,197.558 91.477 C 197.497 85.959,197.447 90.586,197.447 101.758 M93.080 85.742 C 93.083 86.816,93.159 87.209,93.249 86.616 C 93.339 86.022,93.336 85.143,93.244 84.663 C 93.151 84.182,93.078 84.668,93.080 85.742 M131.962 84.277 C 139.551 84.337,151.856 84.336,159.306 84.277 C 166.756 84.218,160.547 84.169,145.508 84.169 C 130.469 84.169,124.373 84.218,131.962 84.277 M163.763 106.250 C 163.763 107.002,163.843 107.310,163.941 106.934 C 164.039 106.558,164.039 105.942,163.941 105.566 C 163.843 105.190,163.763 105.498,163.763 106.250 M119.238 120.605 C 124.126 120.667,132.124 120.667,137.012 120.605 C 141.899 120.543,137.900 120.492,128.125 120.492 C 118.350 120.492,114.351 120.543,119.238 120.605 M93.094 126.172 C 93.094 127.568,93.165 128.140,93.251 127.441 C 93.338 126.743,93.338 125.601,93.251 124.902 C 93.165 124.204,93.094 124.775,93.094 126.172 M93.075 148.438 C 93.075 149.404,93.151 149.800,93.244 149.316 C 93.338 148.833,93.338 148.042,93.244 147.559 C 93.151 147.075,93.075 147.471,93.075 148.438 M145.313 161.060 C 145.313 161.127,145.884 161.698,146.582 162.329 L 147.852 163.477 146.704 162.207 C 145.635 161.024,145.313 160.758,145.313 161.060 M197.447 182.031 C 197.447 192.881,197.497 197.319,197.558 191.895 C 197.620 186.470,197.620 177.593,197.558 172.168 C 197.497 166.743,197.447 171.182,197.447 182.031 M93.059 198.828 C 93.059 199.580,93.140 199.888,93.238 199.512 C 93.336 199.136,93.336 198.521,93.238 198.145 C 93.140 197.769,93.059 198.076,93.059 198.828 M120.771 204.980 C 134.020 205.037,155.817 205.037,169.208 204.980 C 182.599 204.923,171.758 204.877,145.117 204.877 C 118.477 204.877,107.521 204.923,120.771 204.980 M98.962 245.508 C 98.963 247.227,99.032 247.881,99.115 246.962 C 99.197 246.044,99.196 244.637,99.112 243.837 C 99.028 243.037,98.961 243.789,98.962 245.508 M131.821 261.523 C 131.821 271.836,131.872 275.999,131.933 270.774 C 131.995 265.549,131.995 257.111,131.933 252.024 C 131.872 246.936,131.821 251.211,131.821 261.523 M126.661 246.680 C 126.665 247.539,126.745 247.845,126.839 247.359 C 126.932 246.873,126.929 246.170,126.831 245.796 C 126.733 245.423,126.657 245.820,126.661 246.680 M332.134 249.108 C 332.728 249.198,333.607 249.196,334.087 249.103 C 334.568 249.010,334.082 248.937,333.008 248.940 C 331.934 248.943,331.541 249.019,332.134 249.108 M348.138 255.078 C 348.138 255.830,348.218 256.138,348.316 255.762 C 348.414 255.386,348.414 254.771,348.316 254.395 C 348.218 254.019,348.138 254.326,348.138 255.078 M187.994 280.749 C 188.587 280.839,189.466 280.836,189.947 280.744 C 190.427 280.651,189.941 280.578,188.867 280.580 C 187.793 280.583,187.400 280.659,187.994 280.749 M200.684 280.744 C 201.167 280.838,201.958 280.838,202.441 280.744 C 202.925 280.651,202.529 280.575,201.563 280.575 C 200.596 280.575,200.200 280.651,200.684 280.744 M222.559 280.744 C 223.042 280.838,223.833 280.838,224.316 280.744 C 224.800 280.651,224.404 280.575,223.438 280.575 C 222.471 280.575,222.075 280.651,222.559 280.744 M85.050 296.376 C 85.743 296.462,86.974 296.463,87.784 296.379 C 88.595 296.294,88.027 296.224,86.523 296.222 C 85.020 296.220,84.356 296.289,85.050 296.376 M165.144 296.377 C 165.846 296.464,166.900 296.462,167.487 296.373 C 168.074 296.284,167.500 296.213,166.211 296.215 C 164.922 296.217,164.442 296.290,165.144 296.377 M243.262 296.376 C 243.960 296.463,245.103 296.463,245.801 296.376 C 246.499 296.290,245.928 296.219,244.531 296.219 C 243.135 296.219,242.563 296.290,243.262 296.376 M209.863 308.878 C 210.669 308.963,211.987 308.963,212.793 308.878 C 213.599 308.794,212.939 308.725,211.328 308.725 C 209.717 308.725,209.058 308.794,209.863 308.878 M269.043 311.994 C 269.526 312.088,270.317 312.088,270.801 311.994 C 271.284 311.901,270.889 311.825,269.922 311.825 C 268.955 311.825,268.560 311.901,269.043 311.994 M274.907 311.995 C 275.393 312.088,276.096 312.085,276.469 311.987 C 276.843 311.889,276.445 311.813,275.586 311.817 C 274.727 311.822,274.421 311.902,274.907 311.995 M279.809 331.836 C 279.811 333.125,279.884 333.605,279.971 332.903 C 280.058 332.201,280.056 331.146,279.967 330.559 C 279.877 329.972,279.806 330.547,279.809 331.836 M221.973 334.644 C 222.349 334.743,222.964 334.743,223.340 334.644 C 223.716 334.546,223.408 334.466,222.656 334.466 C 221.904 334.466,221.597 334.546,221.973 334.644 M225.103 334.655 C 225.697 334.745,226.576 334.743,227.056 334.650 C 227.537 334.557,227.051 334.484,225.977 334.487 C 224.902 334.490,224.509 334.566,225.103 334.655 " stroke="none" fill="#b9d4e1" fill-rule="evenodd"></path></g></svg>